<svg height="512pt" viewBox="-27 0 512 512.002" width="512pt" xmlns="http://www.w3.org/2000/svg"><path d="m59.390625 137.078125v-70.636719l-52.957031 25.140625c-8.578125 4.074219-8.578125 16.28125 0 20.355469zm0 0" fill="#898890"/><path d="m183.1875 497.722656c-10.371094-5.714844-20.121094-8.835937-29.015625-10.246094l11.246094-29.59375-14.230469-5.410156-12.984375 34.167969c-21.042969 1.175781-34.496094 11-35.375 11.660156-3.347656 2.511719-4.023437 7.242188-1.53125 10.605469 2.496094 3.363281 7.253906 4.070312 10.632813 1.597656 1.101562-.808594 27.425781-19.554687 63.914062.550782 1.164062.640624 2.421875.949218 3.664062.949218 2.683594 0 5.289063-1.425781 6.675782-3.941406 2.027344-3.683594.683594-8.3125-2.996094-10.339844zm0 0" fill="#ffe2d9"/><path d="m292.234375 497.722656c-10.371094-5.714844-20.121094-8.835937-29.015625-10.246094l11.246094-29.59375-14.230469-5.410156-12.984375 34.167969c-21.042969 1.175781-34.492188 11-35.375 11.660156-3.347656 2.511719-4.023438 7.242188-1.53125 10.605469 2.496094 3.363281 7.253906 4.070312 10.632812 1.597656 1.101563-.808594 27.425782-19.554687 63.914063.550782 1.164063.640624 2.421875.949218 3.664063.949218 2.6875 0 5.289062-1.425781 6.675781-3.941406 2.023437-3.683594.683593-8.3125-2.996094-10.339844zm0 0" fill="#ffcfc2"/><path d="m333.5625 413.527344-91.34375 3.246094 4.644531 37.652343c2.175781 17.640625 23.859375 24.839844 36.152344 12.003907zm0 0" fill="#acabb1"/><path d="m76.644531 74.972656c0 14.792969-11.992187 26.789063-26.789062 26.789063-14.792969 0-26.789063-11.996094-26.789063-26.789063 0-14.796875 11.996094-26.789062 26.789063-26.789062 14.796875 0 26.789062 11.992187 26.789062 26.789062zm0 0" fill="#ffe2d9"/><path d="m204.09375 56.351562c-15.882812-59.75-73.222656-56.3124995-73.222656-56.3124995-35.324219 0-65.921875 24.4140625-73.855469 58.8359375-21.265625 92.265625-45.527344 268.433594 53.78125 345.980469 10.019531 7.824219 17.480469 18.457031 21.207031 30.613281l5.8125 18.957031c2.175782 17.640625 23.859375 24.839844 36.152344 12.003907l11.355469-11.855469c6.707031-7.003907 16.289062-10.535157 25.921875-9.449219 124.6875 14.085938 226.988281-93.789062 226.988281-93.789062s-174.472656-70.523438-234.140625-294.984376zm0 0" fill="#d8d7da"/><path d="m438.230469 351.335938s-67.132813-27.136719-132.355469-101.316407l-123.886719 78.34375s28.109375 54.882813 69.238281 70.726563c15.613282 6.011718 32.289063 21.171875 46.972657 37.65625 81.964843-24.171875 140.03125-85.410156 140.03125-85.410156zm0 0" fill="#c6c5ca"/><path d="m194.417969 251.109375c0-.332031 32.507812-26.53125 69.816406-56.484375-24.09375-37.703125-45.546875-83.378906-60.140625-138.273438-15.882812-59.75-73.222656-56.3164058-73.222656-56.3164058-35.324219 0-65.921875 24.4140628-73.855469 58.8398438-10.90625 47.316406-22.601563 116.695312-18.007813 183.527344 28.414063 25.632812 81.789063 53.226562 155.410157 8.707031zm0 0" fill="#bfbddb"/><path d="m308.363281 376.132812s20.359375 47.554688 106.421875 89.503907c19.566406 9.539062 40.949219-9.257813 34-29.882813-11.988281-35.613281-26.152344-76.894531-26.152344-76.894531zm0 0" fill="#bfbddb"/><path d="m447.273438 431.257812c-11.636719-34.5-24.640626-72.398437-24.640626-72.398437l-114.265624 17.273437s8.304687 19.398438 36.730468 44.351563c25 7.105469 59.761719 13.300781 102.175782 10.773437zm0 0" fill="#a5a5c6"/><path d="m282.539062 141.867188c-30.617187-13.273438-65.695312-9.355469-93.148437 9.613281-27.875 19.257812-56.890625 54.96875-40.527344 116.746093 19.679688 74.285157 67.753907 82.65625 95.910157 80.621094 13.230468-.957031 26.320312 3.679688 36.015624 12.734375 21.292969 19.878907 68.019532 49.371094 153.109376 41.148438 17.691406-1.707031 28.699218-20.042969 21.859374-36.445313-24.992187-59.929687-88.214843-187.574218-173.21875-224.417968zm0 0" fill="#eaeaea"/><path d="m97.890625 80.375c-4.203125 0-7.613281-3.410156-7.613281-7.613281v-12.636719c0-4.203125 3.410156-7.609375 7.613281-7.609375s7.613281 3.40625 7.613281 7.609375v12.636719c0 4.203125-3.410156 7.613281-7.613281 7.613281zm0 0" fill="#57565c"/></svg>