<?xml version="1.0" encoding="iso-8859-1"?>
<!-- Generator: Adobe Illustrator 19.0.0, SVG Export Plug-In . SVG Version: 6.00 Build 0)  -->
<svg version="1.1" id="Capa_1" xmlns="http://www.w3.org/2000/svg" xmlns:xlink="http://www.w3.org/1999/xlink" x="0px" y="0px"
	 viewBox="0 0 511.999 511.999" style="enable-background:new 0 0 511.999 511.999;" xml:space="preserve">
<g>
	<path style="fill:#A6CC2F;" d="M390.985,7.532c-2.085-0.06-4.029,1.126-4.843,3.059c-11.403,27.118,9.752,55.378,35.155,55.378
		c2.005,0,3.828-1.202,4.61-3.064C436.681,37.287,418.678,8.809,390.985,7.532z"/>
	<path style="fill:#A6CC2F;" d="M406.088,130.319c-4.019,0-7.713,0.303-8.469,4.291c-3.869,20.373,11.565,39.827,32.925,39.827
		c4.024,0,7.716-0.302,8.474-4.29C442.9,149.718,427.397,130.319,406.088,130.319z"/>
	<path style="fill:#A6CC2F;" d="M483.274,137.108c-0.28-2.155-1.919-3.883-4.056-4.275c-22.487-4.143-42.275,14.841-39.344,37.34
		c0.28,2.154,1.918,3.881,4.054,4.274c10.255,1.89,21.131-0.999,29.187-8.641C480.857,158.457,484.655,147.729,483.274,137.108z"/>
	<path style="fill:#A6CC2F;" d="M433.417,118.303c1.989-0.874,3.187-2.93,2.967-5.091c-2.307-22.604-25.943-36.508-46.849-27.336
		c-1.988,0.873-3.187,2.928-2.967,5.089C388.862,113.531,412.473,127.491,433.417,118.303z"/>
	<path style="fill:#A6CC2F;" d="M442.321,115.931c22.626-2.439,36.32-26.204,27.052-47.013c-0.885-1.984-2.948-3.168-5.109-2.939
		c-22.625,2.447-36.317,26.202-27.051,47.013C438.096,114.973,440.156,116.165,442.321,115.931z"/>
</g>
<g>
	<path style="fill:#88C920;" d="M405.918,11.204c-4.633-2.148-9.691-3.432-14.933-3.673c-2.085-0.06-4.029,1.126-4.843,3.059
		c-11.403,27.118,9.752,55.378,35.155,55.378c2.034,0,3.783-1.04,4.847-3.676C406.673,53.272,398.064,30.775,405.918,11.204z"/>
	<path style="fill:#88C920;" d="M418.468,132.666c-3.878-1.535-8.054-2.347-12.381-2.347c-4.019,0-7.713,0.303-8.469,4.291
		c-3.869,20.373,11.565,39.827,32.925,39.827c3.73,0,6.08-0.145,7.635-2.345C415.965,163.303,414.894,137.727,418.468,132.666z"/>
	<path style="fill:#88C920;" d="M481.845,134.222c-2.94-2.94-19.741-4.198-31.817,7.258c-7.742,7.345-11.537,18.071-10.153,28.692
		c0.28,2.154,1.918,3.881,4.054,4.274c5.813,1.072,11.812,0.603,17.39-1.387C456.763,168.514,459.328,142.253,481.845,134.222z"/>
	<path style="fill:#88C920;" d="M406.58,90.965c-0.401-3.944,2.862-5.262,6.441-6.389c-7.954-2.488-16.192-1.9-23.485,1.3
		c-1.988,0.873-3.187,2.928-2.967,5.089c2.143,21.065,22.991,34.984,43.364,28.634C416.728,115.462,407.897,103.922,406.58,90.965z"
		/>
	<path style="fill:#88C920;" d="M470.163,70.862c-0.243-0.653-0.504-1.302-0.791-1.942c-0.885-1.984-2.948-3.168-5.109-2.939
		c-22.625,2.447-36.317,26.202-27.051,47.013c0.883,1.98,2.943,3.173,5.108,2.939c5.071-0.546,9.882-2.254,14.114-4.879
		C451.014,96.481,456.176,79.544,470.163,70.862z"/>
</g>
<path style="fill:#4BA7E0;" d="M119.182,162.603c9.163,6.528,20.731,11.442,35.346,13.094
	c48.281,5.455,103.248,26.156,122.981,84.966c1.121,3.336,4.537,5.327,7.977,4.579c0.726-0.426,1.427-0.868,2.118-1.317v-3.167
	c0,0,8.208-85.012-77.733-119.105c-50.976-20.221-67.577-45.089-72.886-57.508c0-0.001-0.001-0.001-0.001-0.002
	c-3.386-6.608-7.345-1.65-7.59-1.334c-8.512,12.125-23.344,40.303-10.574,76.723L119.182,162.603z"/>
<path style="fill:#4B87DD;" d="M139.198,169.608c-0.786-6.674-14.566-36.368,5.531-72.32c-3.833-5.119-6.241-9.63-7.743-13.144
	c0-0.001-0.001-0.001-0.001-0.002c-3.386-6.608-7.345-1.65-7.59-1.334c-8.512,12.125-23.344,40.303-10.574,76.723l0.361,3.07
	c7.589,5.406,16.831,9.699,28.084,11.955C144.391,173.048,141.701,171.391,139.198,169.608z"/>
<path style="fill:#6EDCF9;" d="M434.677,228.126c11.027-4.289,0.697-6.374,0.697-6.374l0.091-0.041
	c-0.003-0.001-26.425-6.926-26.428-6.926c-14.598-3.288-16.729-13.19-16.729-13.19h-0.003c-3.867-20.37-22.347-35.57-44.131-34.25
	c-23.63,1.435-42.414,22.829-39.283,47.521c2.294,18.095-4.94,36.526-23.403,47.373c-3.44,0.748-6.856-1.243-7.977-4.579
	c-19.733-58.811-74.701-79.511-122.981-84.966c-41.439-4.68-58.478-35.535-65.205-55.335c-1.725-5.076-8.874-5.193-10.719-0.163
	C5.461,316.162,242.187,282.333,196.135,351.789c-4.457,6.724-9.606,12.544-15.262,17.616
	c-47.931,37.447-104.838,27.958-133.436,19.484v0.002c-1.075-0.616-17.131-6.488-19.016,10.707
	c0.673,34.482,14.915,66.755,27.257,80.55l0.004-0.003c9.018,10.361,19.254,17.597,27.538,22.338
	c7.852,4.491,17.834,1.124,21.441-7.173c11.63-26.719,43.449-79.762,110.081-69.698c88.385,13.352,158.939-50.566,155.835-121.116
	c-0.042-0.961-0.057-1.896-0.073-2.833h-0.01c0-8.931,0.595-17.216,3.552-26.648c8.352-28.14,28.58-34.323,28.58-34.323
	l30.362-11.811C433.479,228.627,434.036,228.375,434.677,228.126z"/>
<g>
	<path style="fill:#5DCEE8;" d="M94.376,129.589c-2.12-4.306-3.774-8.468-5.052-12.231c-1.725-5.076-8.874-5.193-10.719-0.163
		C5.461,316.162,242.187,282.333,196.135,351.789c-18.659,28.146-54.172,42.337-87.484,44.473
		c53.137,3.272,93.275-20.589,107.499-44.473C272.126,257.799,35.939,313.643,94.376,129.589z"/>
	<path style="fill:#5DCEE8;" d="M360.817,168.471c-28.838-7.008-55.626,17.221-51.926,46.396
		c2.485,19.601-6.201,37.263-23.403,47.373c-2.735,0.594-5.452-0.547-7.015-2.716v0.001c5.637,20.453,55.885-1.651,50.433-44.658
		C326.12,192.91,340.7,173.412,360.817,168.471z"/>
	<path style="fill:#5DCEE8;" d="M75.696,480.144l-0.004,0.003c-9.656-10.793-26.504-42.034-27.257-80.55
		c0.5-4.56,1.972-7.491,3.891-9.333c-1.707-0.456-3.341-0.918-4.889-1.376v0.002c-1.075-0.616-17.131-6.488-19.016,10.707
		c0.673,34.482,14.915,66.755,27.257,80.55l0.004-0.003c9.018,10.361,19.254,17.597,27.538,22.338
		c5.736,3.281,12.599,2.354,17.294-1.611C92.773,496.153,83.749,489.399,75.696,480.144z"/>
</g>
<path d="M445.581,182.25c28.569,3.206,51.014-22.958,44.479-50.324c-0.624-2.614-2.599-4.694-5.177-5.455
	c-12.765-3.765-26.69-1.179-37.283,7.313c-0.237-3.637-0.558-7.267-0.971-10.891c27.881-5.403,41.811-36.555,27.764-60.844
	c-2.499-4.32-7.516-3.746-6.516-3.748c-12.693,0.031-24.616,5.984-32.306,15.836c-0.899-2.617-1.846-5.225-2.842-7.822
	c13.834-31.912-10.249-67.648-45.301-66.278c-2.686,0.102-5.111,1.631-6.362,4.011c-15.75,29.997,4.184,66.714,38.294,69.325
	c0.824,2.201,1.601,4.41,2.352,6.626c-12.506-6.347-27.071-5.792-38.911,0.952c-2.334,1.33-3.779,3.806-3.79,6.492
	c-0.057,14.665,7.814,28.554,20.839,35.895c-0.998,0.156-1.99,0.334-2.974,0.563c-2.618,0.608-4.71,2.571-5.486,5.145
	c-7.876,26.114,11.525,52.761,39.055,52.91c-1.409,8.937-3.383,17.845-5.928,26.689c-0.221,0.767-0.453,1.54-0.685,2.313
	c-13.816-3.621-22.565-4.622-24.495-11.787c-5.081-23.957-27.134-40.791-51.749-39.297c-28.42,1.725-49.917,27.227-46.274,55.957
	c1.317,10.397-0.971,19.934-6.384,27.746c-4.347-48.808-32.53-89.189-82.17-108.882c-63.907-25.351-70.378-57.832-70.633-59.29
	c-0.275-2.904-2.201-5.284-4.956-6.26c-2.774-0.982-5.852-0.149-7.895,1.968c-1.22,1.264-24.956,26.416-22.728,64.926
	c-4.643-6.924-7.934-14.26-10.25-21.076c-4.012-11.801-20.602-11.97-24.87-0.337C5.388,294.282,184.1,296.522,194.118,332.537
	c5.476,19.68-52.276,77.002-144.685,49.172c-0.359-0.106-3.263-0.998-3.531-1.058c-12.764-2.907-23.44,3.276-25.071,18.147
	c-0.113,1.021-0.445,24.219,9.365,50.56c9.797,25.663,22.037,44.129,49.167,59.658c3.453,1.975,7.334,2.982,11.237,2.982
	c2.398,0,4.804-0.38,7.122-1.15c6.125-2.033,11.115-6.599,13.691-12.525c9.886-22.716,33.188-61.497,78.172-66.002
	c4.125-0.413,7.133-4.092,6.72-8.216c-0.414-4.125-4.088-7.131-8.216-6.721c-52.602,5.27-79.242,49.22-90.441,74.951
	c-0.892,2.051-2.545,3.567-4.656,4.267c-2.081,0.691-4.274,0.472-6.174-0.614c-22.87-13.093-33.261-27.525-42.577-51.926
	c-5.245-14.083-8.082-28.91-8.434-44.075c0.823-6.153,3.44-5.644,9.369-3.884c30.763,9.114,89.882,18.539,140.189-20.766
	c1.001-0.782,9.54-8.285,16.897-19.382c23.496-35.437-14.414-51.433-41.684-64.358c-25.766-12.213-54.968-26.055-72.731-51.364
	c-19.944-28.417-21.272-66.296-4.022-115.693c8.06,20.579,27.052,50.811,69.734,55.632c42.627,4.818,97.479,22.588,116.709,79.9
	c2.348,6.988,9.525,11.074,16.685,9.524c5.272-1.147,33.813-19.69,29.254-55.651c-0.283-2.235-0.35-4.524-0.196-6.804
	c1.167-17.35,15.133-31.228,32.488-32.282c17.429-1.048,33.054,11.047,36.303,28.158c0.032,0.172,0.07,0.341,0.114,0.508
	c1.33,5.472,7.392,15.186,22.211,18.573l13.454,3.526l-20.641,8.029c-18.679,6.397-37.603,30.473-37.078,67.774
	c-0.008,0.234-0.005,0.507,0.014,0.777c0.06,3.378,0.153,3.35,0.151,6.798c-0.003,4.145,3.355,7.508,7.501,7.511
	c0.002,0,0.003,0,0.005,0c4.143,0,7.503-3.356,7.506-7.501c0.001-1.781-0.029-3.359-0.093-4.823
	c-0.036-0.823-0.055-1.811-0.067-2.638c-0.001-0.031-0.005-0.186-0.005-0.203c-0.135-8.754,0.943-16.851,3.203-24.067
	c6.26-19.314,14.307-25.747,28.906-31.427c-4.539,9.062-9.699,17.808-15.45,26.109c-3.452,4.983,0.145,11.781,6.163,11.781
	c2.379,0,4.719-1.129,6.177-3.232c12.524-18.078,21.274-37.101,23.192-42.468l17.526-6.818c6.76-2.63,6.196-12.417-0.818-14.255
	l-8.41-2.204C441.564,204.002,443.949,193.231,445.581,182.25z M455.315,146.945c5.734-5.439,13.345-7.812,20.813-6.984
	c0.918,16.014-12.685,29.177-28.824,27.403C447.66,163.056,447.134,154.708,455.315,146.945z M463.339,73.731
	c5.338,14.766-3.434,30.892-18.909,34.295c-0.688-3.791-1.474-7.57-2.356-11.335C443.265,84.915,452.125,75.77,463.339,73.731z
	 M419.756,58.356c-21.082-2.114-34.258-23.46-27.218-43.176C413.582,17.292,426.81,38.608,419.756,58.356z M155.244,165.257
	c-12.123-1.369-21.962-5.183-29.96-10.422c-9.068-28.284-0.16-50.707,7.24-62.986c7.878,14.776,27.275,37.988,74.702,56.802
	c33.296,13.209,55.693,35.825,66.566,67.221c3.554,10.263,5.246,19.863,6.021,27.478
	C257.659,194.149,209.097,171.341,155.244,165.257z M394.413,92.08c15.16-5.398,31.568,4.078,34.371,20.062
	C413.471,117.591,397.181,107.889,394.413,92.08z M432.051,166.916c-16.377,0.867-29.058-13.218-27.219-29.035
	C421.212,137.01,433.888,151.124,432.051,166.916z M426.389,128.15c1.881-0.296,3.738-0.723,5.559-1.275
	c0.188,1.815,0.352,3.632,0.491,5.45C430.544,130.752,428.521,129.352,426.389,128.15z"/>
<circle cx="357.292" cy="207.833" r="9.414"/>
<path d="M366.943,336.958c-3.904-1.385-8.197,0.656-9.583,4.564c-18.202,51.295-72.812,83.274-132.81,77.75
	c-4.126-0.386-7.781,2.658-8.161,6.787c-0.379,4.128,2.659,7.781,6.787,8.161c70.354,6.468,129.175-33.695,148.331-87.679
	C372.893,342.635,370.85,338.345,366.943,336.958z"/>
<g>
</g>
<g>
</g>
<g>
</g>
<g>
</g>
<g>
</g>
<g>
</g>
<g>
</g>
<g>
</g>
<g>
</g>
<g>
</g>
<g>
</g>
<g>
</g>
<g>
</g>
<g>
</g>
<g>
</g>
</svg>
